<svg width="36" height="36" viewBox="0 0 36 36" fill="none" xmlns="http://www.w3.org/2000/svg">
<g clip-path="url(#clip0_151_3891)">
<path d="M8.24992 7.5H27.7499C27.9659 7.57576 28.1618 7.69997 28.3224 7.8631C28.483 8.02623 28.6041 8.22395 28.6765 8.44113C28.7489 8.65831 28.7706 8.88918 28.74 9.11605C28.7094 9.34292 28.6273 9.55977 28.4999 9.75L20.9999 18V28.5L14.9999 24V18L7.49992 9.75C7.37255 9.55977 7.29042 9.34292 7.25981 9.11605C7.2292 8.88918 7.25092 8.65831 7.32331 8.44113C7.39571 8.22395 7.51685 8.02623 7.67746 7.8631C7.83807 7.69997 8.03389 7.57576 8.24992 7.5Z" stroke="black" stroke-width="2.5" stroke-linecap="round" stroke-linejoin="round"/>
</g>
<defs>
<clipPath id="clip0_151_3891">
<rect width="36" height="36" fill="white"/>
</clipPath>
</defs>
</svg>
