<svg width="44" height="44" viewBox="0 0 44 44" fill="none" xmlns="http://www.w3.org/2000/svg">
<g clip-path="url(#clip0_5_2944)">
<path d="M12.8333 33.0002C10.5458 33.0002 8.35196 32.131 6.73446 30.5838C5.11695 29.0367 4.20825 26.9382 4.20825 24.7502C4.20825 22.5622 5.11695 20.4637 6.73446 18.9166C8.35196 17.3694 10.5458 16.5002 12.8333 16.5002C13.3735 14.0934 14.954 11.9782 17.227 10.6202C18.3525 9.94772 19.6141 9.48137 20.9398 9.24774C22.2656 9.0141 23.6295 9.01777 24.9536 9.25853C26.2778 9.49929 27.5363 9.97242 28.6573 10.6509C29.7783 11.3294 30.7398 12.2 31.487 13.2129C32.2341 14.2258 32.7523 15.3613 33.0119 16.5545C33.2715 17.7476 33.2674 18.9751 32.9999 20.1669H34.8333C36.5351 20.1669 38.1672 20.8429 39.3705 22.0463C40.5739 23.2496 41.2499 24.8817 41.2499 26.5835C41.2499 28.2853 40.5739 29.9174 39.3705 31.1208C38.1672 32.3242 36.5351 33.0002 34.8333 33.0002H32.9999" stroke="white" stroke-width="2.75" stroke-linecap="round" stroke-linejoin="round"/>
<path d="M16.5 27.5L22 22L27.5 27.5" stroke="white" stroke-width="2.75" stroke-linecap="round" stroke-linejoin="round"/>
<path d="M22 22V38.5" stroke="white" stroke-width="2.75" stroke-linecap="round" stroke-linejoin="round"/>
</g>
<defs>
<clipPath id="clip0_5_2944">
<rect width="44" height="44" fill="white"/>
</clipPath>
</defs>
</svg>
