<svg width="24" height="24" viewBox="0 0 24 24" fill="none" xmlns="http://www.w3.org/2000/svg">
<g clip-path="url(#clip0_598_1560)">
<path d="M10.0007 3.20047C8.4364 3.56311 6.99761 4.33767 5.83358 5.44381C4.66954 6.54994 3.82264 7.94737 3.38072 9.49115C2.93881 11.0349 2.91798 12.6688 3.32039 14.2234C3.72279 15.7779 4.53378 17.1965 5.66924 18.3319C6.8047 19.4674 8.22327 20.2784 9.77781 20.6808C11.3323 21.0832 12.9662 21.0624 14.51 20.6204C16.0538 20.1785 17.4512 19.3316 18.5574 18.1676C19.6635 17.0036 20.4381 15.5648 20.8007 14.0005C20.8007 13.7353 20.6953 13.4809 20.5078 13.2934C20.3203 13.1058 20.0659 13.0005 19.8007 13.0005H13.0007C12.4703 13.0005 11.9616 12.7898 11.5865 12.4147C11.2114 12.0396 11.0007 11.5309 11.0007 11.0005V4.00047C10.9883 3.882 10.9525 3.76717 10.8953 3.66264C10.8382 3.55811 10.7608 3.46597 10.6678 3.39155C10.5748 3.31714 10.4679 3.26193 10.3534 3.22913C10.2389 3.19633 10.119 3.18659 10.0007 3.20047Z" stroke="#254A93" stroke-width="1.5" stroke-linecap="round" stroke-linejoin="round"/>
<path d="M15 3.5C16.2697 3.94708 17.423 4.6733 18.3748 5.62516C19.3267 6.57702 20.0529 7.73028 20.5 9H16C15.7348 9 15.4804 8.89464 15.2929 8.70711C15.1054 8.51957 15 8.26522 15 8V3.5Z" stroke="#254A93" stroke-width="1.5" stroke-linecap="round" stroke-linejoin="round"/>
</g>
<defs>
<clipPath id="clip0_598_1560">
<rect width="24" height="24" fill="white"/>
</clipPath>
</defs>
</svg>
