<svg width="70" height="70" viewBox="0 0 70 70" fill="none" xmlns="http://www.w3.org/2000/svg">
<g clip-path="url(#clip0_50_270)">
<path d="M35.0006 5.8335C18.9007 5.8335 5.83398 18.9002 5.83398 35.0002C5.83398 51.1002 18.9007 64.1668 35.0006 64.1668C51.1006 64.1668 64.1673 51.1002 64.1673 35.0002C64.1673 18.9002 51.1006 5.8335 35.0006 5.8335ZM35.0006 58.3335C22.1382 58.3335 11.6673 47.8627 11.6673 35.0002C11.6673 22.1377 22.1382 11.6668 35.0006 11.6668C47.8631 11.6668 58.334 22.1377 58.334 35.0002C58.334 47.8627 47.8631 58.3335 35.0006 58.3335ZM35.9048 32.4918C30.7423 31.1793 29.0798 29.7502 29.0798 27.621C29.0798 25.171 31.384 23.4502 35.2048 23.4502C39.2298 23.4502 40.7465 25.3752 40.8632 28.2335H45.8507C45.7048 24.3252 43.3131 20.7377 38.5881 19.571V14.5835H31.7923V19.5127C27.3881 20.446 23.859 23.3043 23.859 27.7085C23.859 32.9293 28.2048 35.5543 34.534 37.071C40.2215 38.4127 41.359 40.4252 41.359 42.5252C41.359 44.071 40.2215 46.5793 35.234 46.5793C30.5673 46.5793 28.7298 44.4793 28.4673 41.796H23.4506C23.7423 46.7543 27.4173 49.5543 31.7923 50.4585V55.4168H38.6173V50.546C43.0506 49.7002 46.5506 47.1627 46.5798 42.4668C46.5506 36.0502 41.0382 33.8335 35.9048 32.4918Z" fill="#254A93"/>
</g>
<defs>
<clipPath id="clip0_50_270">
<rect width="70" height="70" fill="white"/>
</clipPath>
</defs>
</svg>
