<svg width="54" height="54" viewBox="0 0 54 54" fill="none" xmlns="http://www.w3.org/2000/svg">
<path d="M47.4167 0.75H6.58333C3.375 0.75 0.75 3.375 0.75 6.58333V47.4167C0.75 50.625 3.375 53.25 6.58333 53.25H47.4167C50.625 53.25 53.25 50.625 53.25 47.4167V6.58333C53.25 3.375 50.625 0.75 47.4167 0.75ZM47.4167 47.4167H6.58333V6.58333H47.4167V47.4167Z" fill="#254A93"/>
<path d="M18.2493 27H12.416V41.5833H18.2493V27Z" fill="#254A93"/>
<path d="M41.5833 12.4167H35.75V41.5834H41.5833V12.4167Z" fill="#254A93"/>
<path d="M29.9173 32.8333H24.084V41.5833H29.9173V32.8333Z" fill="#254A93"/>
<path d="M29.9173 21.1667H24.084V27.0001H29.9173V21.1667Z" fill="#254A93"/>
</svg>
