<svg width="65" height="54" viewBox="0 0 65 54" fill="none" xmlns="http://www.w3.org/2000/svg">
<path d="M24.2493 35.75C16.4618 35.75 0.916016 39.6583 0.916016 47.4167V53.25H47.5827V47.4167C47.5827 39.6583 32.0368 35.75 24.2493 35.75ZM6.74935 47.4167C7.39101 45.3167 16.4035 41.5833 24.2493 41.5833C32.1243 41.5833 41.166 45.3458 41.7493 47.4167H6.74935Z" fill="#254A93"/>
<path d="M11.8237 18.2498H12.582C12.582 24.6957 17.8029 29.9165 24.2487 29.9165C30.6945 29.9165 35.9154 24.6957 35.9154 18.2498H36.6737C37.4612 18.2498 38.1029 17.6082 38.1029 16.8207V16.7623C38.1029 15.9748 37.4612 15.3332 36.6737 15.3332H35.9154C35.9154 11.0165 33.5529 7.31234 30.082 5.27067V8.0415C30.082 8.85817 29.4404 9.49984 28.6237 9.49984C27.807 9.49984 27.1654 8.85817 27.1654 8.0415V4.07484C26.232 3.8415 25.2695 3.6665 24.2487 3.6665C23.2279 3.6665 22.2654 3.8415 21.332 4.07484V8.0415C21.332 8.85817 20.6904 9.49984 19.8737 9.49984C19.057 9.49984 18.4154 8.85817 18.4154 8.0415V5.27067C14.9445 7.31234 12.582 11.0165 12.582 15.3332H11.8237C11.0362 15.3332 10.3945 15.9748 10.3945 16.7623V16.8498C10.3945 17.6082 11.0362 18.2498 11.8237 18.2498ZM30.082 18.2498C30.082 21.4582 27.457 24.0832 24.2487 24.0832C21.0404 24.0832 18.4154 21.4582 18.4154 18.2498H30.082Z" fill="#254A93"/>
<path d="M62.1069 10.1708L64.8194 7.75L62.6319 3.95833L59.1611 5.09583C58.7527 4.775 58.2861 4.5125 57.7902 4.30833L57.0611 0.75H52.6861L51.9569 4.30833C51.4611 4.5125 50.9944 4.775 50.5569 5.09583L47.1152 3.95833L44.9277 7.75L47.6402 10.1708C47.5819 10.6667 47.5819 11.1917 47.6402 11.6875L44.9277 14.1667L47.1152 17.9583L50.6152 16.85C50.9944 17.1417 51.4319 17.375 51.8694 17.5792L52.6861 21.1667H57.0611L57.8486 17.6083C58.3152 17.4042 58.7236 17.1708 59.1319 16.8792L62.6027 17.9875L64.7902 14.1958L62.0777 11.7167C62.1652 11.1625 62.1361 10.6667 62.1069 10.1708ZM54.8736 14.6042C52.8611 14.6042 51.2277 12.9708 51.2277 10.9583C51.2277 8.94584 52.8611 7.3125 54.8736 7.3125C56.8861 7.3125 58.5194 8.94584 58.5194 10.9583C58.5194 12.9708 56.8861 14.6042 54.8736 14.6042Z" fill="#254A93"/>
<path d="M54.5823 23.4707L52.1031 24.2873C51.8115 24.054 51.4906 23.879 51.1406 23.7332L50.6156 21.1665H47.4948L46.9698 23.704C46.6198 23.8498 46.2698 24.054 45.9781 24.2582L43.5281 23.4415L41.9531 26.154L43.8781 27.8748C43.849 28.254 43.849 28.604 43.8781 28.954L41.9531 30.7332L43.5281 33.4457L46.0365 32.6582C46.3281 32.8623 46.6198 33.0373 46.9406 33.1832L47.4656 35.7498H50.5865L51.1406 33.2123C51.4615 33.0665 51.7823 32.8915 52.074 32.6873L54.5531 33.4748L56.1281 30.7623L54.2031 28.9832C54.2323 28.604 54.2323 28.254 54.2031 27.904L56.1281 26.1832L54.5823 23.4707ZM49.0406 31.054C47.6115 31.054 46.4448 29.8873 46.4448 28.4582C46.4448 27.029 47.6115 25.8623 49.0406 25.8623C50.4698 25.8623 51.6365 27.029 51.6365 28.4582C51.6365 29.8873 50.4698 31.054 49.0406 31.054Z" fill="#254A93"/>
</svg>
