<svg width="70" height="70" viewBox="0 0 70 70" fill="none" xmlns="http://www.w3.org/2000/svg">
<g clip-path="url(#clip0_340_986)">
<path d="M59.9083 15.2542L55.8542 10.3542C55.0667 9.3625 53.8708 8.75 52.5 8.75H17.5C16.1292 8.75 14.9333 9.3625 14.1167 10.3542L10.0917 15.2542C9.24583 16.2458 8.75 17.5583 8.75 18.9583V55.4167C8.75 58.625 11.375 61.25 14.5833 61.25H55.4167C58.625 61.25 61.25 58.625 61.25 55.4167V18.9583C61.25 17.5583 60.7542 16.2458 59.9083 15.2542ZM18.2 14.5833H51.8L54.1625 17.4125H15.8667L18.2 14.5833ZM14.5833 55.4167V23.3333H55.4167V55.4167H14.5833ZM39.2292 29.1667H30.7708V37.9167H23.3333L35 49.5833L46.6667 37.9167H39.2292V29.1667Z" fill="#254A93"/>
</g>
<defs>
<clipPath id="clip0_340_986">
<rect width="70" height="70" fill="white"/>
</clipPath>
</defs>
</svg>
