<svg width="70" height="70" viewBox="0 0 70 70" fill="none" xmlns="http://www.w3.org/2000/svg">
<g clip-path="url(#clip0_50_267)">
<path d="M45.3535 37.9166C47.541 37.9166 49.466 36.7208 50.4577 34.9124L60.8993 15.9833C61.9785 14.0583 60.5785 11.6666 58.3619 11.6666H15.1952L12.4535 5.83325H2.91602V11.6666H8.74935L19.2493 33.8041L15.3118 40.9207C13.1827 44.8291 15.9827 49.5832 20.416 49.5832H55.416V43.7499H20.416L23.6244 37.9166H45.3535ZM17.966 17.4999H53.4035L45.3535 32.0833H24.8785L17.966 17.4999ZM20.416 52.4999C17.2077 52.4999 14.6118 55.1249 14.6118 58.3332C14.6118 61.5416 17.2077 64.1666 20.416 64.1666C23.6243 64.1666 26.2493 61.5416 26.2493 58.3332C26.2493 55.1249 23.6243 52.4999 20.416 52.4999ZM49.5827 52.4999C46.3744 52.4999 43.7785 55.1249 43.7785 58.3332C43.7785 61.5416 46.3744 64.1666 49.5827 64.1666C52.791 64.1666 55.416 61.5416 55.416 58.3332C55.416 55.1249 52.791 52.4999 49.5827 52.4999Z" fill="#254A93"/>
</g>
<defs>
<clipPath id="clip0_50_267">
<rect width="70" height="70" fill="white"/>
</clipPath>
</defs>
</svg>
